<svg width="80" height="48" viewBox="0 0 80 48" fill="none" xmlns="http://www.w3.org/2000/svg">
  <rect width="80" height="48" rx="14" fill="#F7FBFF"/>
  <path d="M40 8C31.716 8 32.25 11.6 32.25 11.6V15.333H40.125V16.467H29.125C29.125 16.467 24 15.882 24 24C24 32.118 28.475 31.833 28.475 31.833H31.2V27.978C31.2 27.978 31.054 23.4 35.725 23.4H43.525C43.525 23.4 47.9 23.471 47.9 19.233V12.167C47.9 12.167 48.563 8 40 8ZM35.662 10.311C36.444 10.311 37.075 10.945 37.075 11.722C37.075 12.5 36.444 13.133 35.662 13.133C34.881 13.133 34.25 12.5 34.25 11.722C34.25 10.945 34.881 10.311 35.662 10.311Z" fill="#3776AB"/>
  <path d="M40 40C48.284 40 47.75 36.4 47.75 36.4V32.667H39.875V31.533H50.875C50.875 31.533 56 32.118 56 24C56 15.882 51.525 16.167 51.525 16.167H48.8V20.022C48.8 20.022 48.946 24.6 44.275 24.6H36.475C36.475 24.6 32.1 24.529 32.1 28.767V35.833C32.1 35.833 31.437 40 40 40ZM44.338 37.689C43.556 37.689 42.925 37.055 42.925 36.278C42.925 35.5 43.556 34.867 44.338 34.867C45.119 34.867 45.75 35.5 45.75 36.278C45.75 37.055 45.119 37.689 44.338 37.689Z" fill="#FFD43B"/>
</svg>
