<svg width="220" height="56" viewBox="0 0 220 56" fill="none" xmlns="http://www.w3.org/2000/svg">
  <rect x="2" y="4" width="48" height="48" rx="16" fill="url(#paint0_linear)"/>
  <path d="M16 28C16 21.3726 21.3726 16 28 16H36V24H28C25.7909 24 24 25.7909 24 28C24 30.2091 25.7909 32 28 32H36V40H28C21.3726 40 16 34.6274 16 28Z" fill="white"/>
  <path d="M36 16H44V40H36V16Z" fill="white"/>
  <path d="M64 18.5H72.7V44H64V18.5Z" fill="white"/>
  <path d="M78.2 26.4C78.2 21.2 81.8 18 87.1 18C92.4 18 96 21.2 96 26.4V44H87.8V27.9C87.8 25.6 86.8 24.5 85.1 24.5C83.4 24.5 82.4 25.6 82.4 27.9V44H78.2V26.4Z" fill="white"/>
  <path d="M101.2 18.5H109.4V44H101.2V18.5Z" fill="white"/>
  <path d="M113.2 31.2C113.2 22.9 119.5 17.8 127.8 17.8C132.8 17.8 136.6 19.6 139.1 22.8L133.7 27.7C132.1 25.9 130.2 24.9 127.9 24.9C123.9 24.9 121.5 27.5 121.5 31.2C121.5 34.9 123.9 37.5 127.9 37.5C130.2 37.5 132.1 36.5 133.7 34.7L139.1 39.6C136.6 42.8 132.8 44.6 127.8 44.6C119.5 44.6 113.2 39.5 113.2 31.2Z" fill="white"/>
  <path d="M143.2 18.5H151.4V44H143.2V18.5Z" fill="white"/>
  <path d="M157 31.2C157 22.9 163.1 17.8 171.2 17.8C179.4 17.8 185.5 22.9 185.5 31.2C185.5 39.5 179.4 44.6 171.2 44.6C163.1 44.6 157 39.5 157 31.2ZM177.3 31.2C177.3 26.7 174.8 24.5 171.2 24.5C167.7 24.5 165.2 26.7 165.2 31.2C165.2 35.7 167.7 37.9 171.2 37.9C174.8 37.9 177.3 35.7 177.3 31.2Z" fill="white"/>
  <path d="M190.2 18.5H198.4V24.2C200.1 20.1 203.6 18 208.1 18H210V25.4H207.2C202.7 25.4 198.4 27.3 198.4 33.9V44H190.2V18.5Z" fill="white"/>
  <defs>
    <linearGradient id="paint0_linear" x1="2" y1="4" x2="50" y2="52" gradientUnits="userSpaceOnUse">
      <stop stop-color="#0066FF"/>
      <stop offset="1" stop-color="#00C6FF"/>
    </linearGradient>
  </defs>
</svg>
